<?xml version="1.0" standalone="no"?>
<!DOCTYPE svg PUBLIC "-//W3C//DTD SVG 20010904//EN"
 "http://www.w3.org/TR/2001/REC-SVG-20010904/DTD/svg10.dtd">
<svg version="1.0" xmlns="http://www.w3.org/2000/svg"
 width="248.000000pt" height="248.000000pt" viewBox="0 0 248.000000 248.000000"
 preserveAspectRatio="xMidYMid meet">
<metadata>
Created by potrace 1.11, written by Peter Selinger 2001-2013
</metadata>
<g transform="translate(0.000000,248.000000) scale(0.100000,-0.100000)"
fill="#000000" stroke="none">
<path d="M0 1240 l0 -1200 1240 0 1240 0 0 1200 0 1200 -1240 0 -1240 0 0
-1200z m2400 1040 c0 -49 -4 -70 -12 -70 -7 0 -486 0 -1063 0 -831 0 -1055 -2
-1068 -12 -16 -12 -18 -81 -20 -1043 l-2 -1030 -72 -3 -73 -3 0 1109 c0 610 3
1112 7 1115 3 4 523 7 1155 7 l1148 0 0 -70z m-15 -176 c13 -5 15 -116 15
-995 l0 -989 -1030 0 c-566 0 -1030 3 -1030 8 -2 649 1 1966 5 1973 7 10 2013
13 2040 3z"/>
<path d="M1197 1689 c-9 -6 -17 -16 -17 -24 0 -7 -9 -16 -19 -20 -24 -7 -35
-33 -21 -50 29 -35 104 -23 111 17 10 58 -17 97 -54 77z"/>
<path d="M1304 1686 c-3 -7 -4 -33 -2 -57 l3 -44 50 0 c44 0 50 3 53 22 2 15
-8 35 -31 58 -35 37 -64 45 -73 21z"/>
<path d="M461 1536 c-7 -8 -11 -32 -9 -53 3 -35 6 -38 38 -43 l35 -5 5 -165 5
-165 38 -9 c64 -16 69 -4 71 180 l1 159 35 3 c19 2 38 9 42 15 12 19 9 72 -4
85 -18 18 -242 16 -257 -2z"/>
<path d="M764 1538 c-12 -20 -17 -411 -5 -428 8 -12 37 -16 125 -18 105 -3
116 -2 135 17 l21 21 20 -20 c38 -38 100 -19 100 30 0 25 4 30 23 30 35 0 61
24 62 56 0 24 5 30 27 32 24 3 27 0 30 -35 3 -34 7 -39 38 -49 27 -9 36 -18
38 -38 2 -14 13 -31 24 -37 26 -14 84 -3 92 17 19 50 -12 104 -59 104 -21 0
-25 5 -25 30 0 23 -6 33 -25 40 -14 5 -31 9 -38 7 -7 -1 -13 10 -15 26 -3 24
0 27 25 27 40 0 51 10 55 50 3 33 6 35 40 38 31 3 39 8 44 29 4 14 3 38 -2 52
-8 21 -16 26 -49 29 -51 3 -68 -9 -68 -47 0 -26 -5 -32 -26 -37 -47 -10 -50
-13 -53 -46 -2 -25 -8 -34 -25 -36 -14 -2 -24 2 -24 10 -1 7 -3 20 -4 28 -1 8
-3 21 -4 28 0 6 -12 12 -25 12 -43 0 -56 10 -56 45 0 21 -6 35 -16 39 -32 12
-74 6 -92 -14 l-19 -21 -6 21 c-5 19 -13 20 -130 20 -89 0 -128 -4 -133 -12z
m290 -83 c3 -8 16 -15 28 -15 29 0 52 -15 44 -28 -3 -6 -2 -22 4 -36 8 -21 16
-26 44 -26 39 0 50 -11 41 -40 -5 -15 -12 -19 -28 -15 -29 8 -59 -15 -61 -45
-1 -17 -9 -26 -31 -32 -16 -4 -36 -15 -43 -25 -11 -16 -13 -16 -28 5 -13 19
-24 22 -85 22 -62 0 -70 2 -67 18 2 11 15 19 38 22 28 4 35 10 42 37 13 48 -4
81 -44 85 -28 2 -33 7 -33 28 0 24 3 25 73 28 53 2 75 7 79 17 7 19 19 19 27
0z"/>
<path d="M1527 1543 c-4 -3 -7 -102 -7 -219 0 -201 1 -214 19 -224 30 -16 59
-12 82 11 17 17 20 30 17 82 l-3 62 70 0 70 0 -3 -62 c-3 -52 -1 -64 18 -83
17 -17 29 -21 53 -16 17 4 35 12 39 19 13 21 10 411 -4 425 -7 7 -29 12 -50
12 -33 0 -40 -4 -49 -27 -6 -15 -9 -53 -7 -83 l3 -55 -58 -3 c-77 -4 -87 5
-80 72 8 74 -6 96 -61 96 -23 0 -46 -3 -49 -7z"/>
<path d="M2010 1531 c-5 -11 -10 -31 -10 -45 0 -21 -5 -25 -37 -28 l-38 -3 -3
-126 c-3 -139 4 -159 54 -159 19 0 24 -5 24 -25 0 -41 38 -58 121 -53 74 4 89
13 89 56 0 17 6 22 24 22 48 0 56 21 56 145 0 62 -3 120 -6 129 -4 10 -18 16
-40 16 -32 0 -34 2 -34 33 0 50 -14 57 -107 57 -71 0 -84 -3 -93 -19z m160
-207 l0 -104 -65 0 -65 0 0 103 c0 57 2 106 4 108 2 2 32 2 65 1 l61 -4 0
-104z"/>
<path d="M565 998 c-3 -7 -6 -80 -7 -163 -3 -141 -4 -150 -23 -153 -67 -10
-66 -9 -63 -65 l3 -52 249 -3 c175 -2 253 1 262 9 16 14 18 62 4 90 -7 12 -21
19 -40 19 l-30 0 -2 163 -3 162 -173 3 c-133 2 -174 0 -177 -10z m235 -208 l0
-111 -66 3 -66 3 1 103 c0 56 0 104 1 107 0 3 29 5 65 5 l65 0 0 -110z"/>
<path d="M1020 995 c-18 -21 -9 -397 10 -420 15 -18 81 -20 98 -3 7 7 12 40
12 80 l0 68 68 0 c77 0 92 9 92 57 0 30 3 33 29 33 39 0 53 20 49 72 -3 42 -4
43 -40 46 -35 3 -37 5 -40 40 l-3 37 -131 3 c-108 2 -133 0 -144 -13z m250
-120 c0 -25 -1 -26 -62 -23 -57 3 -63 5 -66 26 -3 21 0 22 62 22 64 0 66 -1
66 -25z"/>
<path d="M1490 991 c-5 -11 -10 -29 -10 -40 0 -16 -6 -21 -24 -21 -48 0 -56
-21 -56 -149 0 -127 5 -141 52 -141 22 0 28 -5 28 -21 0 -50 15 -59 103 -59
91 0 107 8 107 52 0 25 3 28 34 28 22 0 36 6 40 16 3 9 6 69 6 134 0 108 -2
120 -19 130 -11 5 -29 10 -40 10 -16 0 -21 6 -21 24 0 53 -6 56 -101 56 -77 0
-90 -2 -99 -19z m168 -203 l3 -108 -71 0 -70 0 0 103 c0 57 3 107 7 111 4 4
34 6 68 4 l60 -3 3 -107z"/>
<path d="M1815 998 c-3 -8 -4 -108 -3 -223 l3 -210 29 -3 c15 -2 39 -1 52 2
24 6 24 8 24 127 0 119 0 120 23 117 15 -2 21 -9 19 -21 -6 -34 25 -67 63 -67
41 0 67 24 63 59 -3 22 1 26 25 29 l27 3 0 -120 c0 -119 0 -121 24 -127 13 -3
37 -4 52 -2 l29 3 0 220 0 220 -50 0 -50 0 -3 -37 c-3 -35 -5 -38 -36 -38 -40
0 -56 -15 -56 -53 0 -24 -4 -28 -22 -25 -17 2 -24 11 -26 33 -4 35 -16 45 -54
45 -24 0 -27 4 -30 38 -3 37 -3 37 -51 40 -32 2 -49 -1 -52 -10z"/>
</g>
</svg>
